# xmcd
#
# Track frame offsets: 
#        182
#        10837
#        22350
#        33290
#        44747
#        56242
#        68917
#        82000
#        94375
#        106902
#        118070
#        130455
#        141937
#        151257
#        162817
#        173355
#        187572
#        197412
#        209397
#        219987
#        230910
#        240127
#        254310
#        269435
#        279722
#        293757
#        303097
#        311892
#        324565
#
# Disc length: 4470 seconds
#
# Revision: 2
# Processed by: cddbd v1.5.2PL0 Copyright (c) Steve Scherf et al.
# Submitted via: ExactAudioCopyFreeDBPlugin 1.0
#
DISCID=a511741d
DTITLE=Claude King - More Than Climbing That Mountain, Wolverton Mount
DTITLE=ain, That Is - Disc 5
DYEAR=1900
DGENRE=Country
TTITLE0=Highway Lonely
TTITLE1=Chip 'n' Dale's Place
TTITLE2=Help Me Make It Through The Night
TTITLE3=The Lady Of Our Town
TTITLE4=Just As Soon As I Get Over Loving You
TTITLE5=Sweet Mary Ann
TTITLE6=Let The Sun Shine In
TTITLE7=I Know Its Not Been Easy Loving Me
TTITLE8=I Know Its Not Been Easy Loving Me (With Strings)
TTITLE9=This Time I'm Through
TTITLE10=He Ain't Country
TTITLE11=If My Heart Could Stop
TTITLE12=Don't Do Me Bad
TTITLE13=It's Such A Perfect Day For Making Love
TTITLE14=Sometimes You Lose, Sometimes You Win
TTITLE15=Cottan Dan
TTITLE16=I'll Spend A Lifetime Loving You
TTITLE17=The Night I Cried
TTITLE18=Cry Yourself A River
TTITLE19=Sugar Baby, Candy Girl
TTITLE20=How Long Would It Take
TTITLE21=Just A Bum Husband
TTITLE22=The Best Mistake I Ever Made
TTITLE23=A Bucks Worth Of Change
TTITLE24=I Wonder Who She Missed Me With Today
TTITLE25=I Sat Down On A Beartrap
TTITLE26=It Starts Off Good
TTITLE27=Times And Things Keep Changing
TTITLE28=The Last Days Of Love
EXTD=
EXTT0=
EXTT1=
EXTT2=
EXTT3=
EXTT4=
EXTT5=
EXTT6=
EXTT7=
EXTT8=
EXTT9=
EXTT10=
EXTT11=
EXTT12=
EXTT13=
EXTT14=
EXTT15=
EXTT16=
EXTT17=
EXTT18=
EXTT19=
EXTT20=
EXTT21=
EXTT22=
EXTT23=
EXTT24=
EXTT25=
EXTT26=
EXTT27=
EXTT28=
PLAYORDER=
